<svg width="23" height="23" viewBox="0 0 23 23" fill="none" xmlns="http://www.w3.org/2000/svg">
<g clip-path="url(#clip0_4106_6355)">
<path d="M8.75016 10.5833C10.7752 10.5833 12.4168 8.94171 12.4168 6.91667C12.4168 4.89162 10.7752 3.25 8.75016 3.25C6.72512 3.25 5.0835 4.89162 5.0835 6.91667C5.0835 8.94171 6.72512 10.5833 8.75016 10.5833Z" stroke="white" stroke-width="2.5" stroke-linecap="round" stroke-linejoin="round"/>
<path d="M3.25 19.75V17.9167C3.25 16.9442 3.63631 16.0116 4.32394 15.3239C5.01158 14.6363 5.94421 14.25 6.91667 14.25H10.5833C11.5558 14.25 12.4884 14.6363 13.1761 15.3239C13.8637 16.0116 14.25 16.9442 14.25 17.9167V19.75" stroke="white" stroke-width="2.5" stroke-linecap="round" stroke-linejoin="round"/>
<path d="M16.0406 10.1251C16.4694 9.88638 16.8488 9.5624 17.1537 9.16965C17.6529 8.52651 17.9239 7.73551 17.9239 6.92135C17.9239 6.10719 17.6529 5.31619 17.1537 4.67305C16.7536 4.1576 16.2251 3.76062 15.625 3.51935" stroke="white" stroke-width="2.5" stroke-linecap="round" stroke-linejoin="round"/>
<path d="M19.75 19.75V17.9167C19.7453 17.1074 19.4731 16.3224 18.9757 15.684C18.4782 15.0457 17.7836 14.5898 17 14.3875" stroke="white" stroke-width="2.5" stroke-linecap="round" stroke-linejoin="round"/>
</g>
<defs>
<clipPath id="clip0_4106_6355">
<rect width="22" height="22" fill="white" transform="translate(0.5 0.5)"/>
</clipPath>
</defs>
</svg>
